<svg xmlns="http://www.w3.org/2000/svg" version="1.1" xmlns:xlink="http://www.w3.org/1999/xlink" xmlns:svgjs="http://svgjs.dev/svgjs" width="100%" height="100%" viewBox="0 0 1000 600"><rect width="1000" height="600" x="0" y="0" fill="#ffffff"/><g><rect width="333.3333333333333" height="333.3333333333333" rx="13.333333333333334" ry="13.333333333333334" y="199.1857013206184" fill="#f6f8fb" transform="matrix(0.7063604284563461,0,0,0.7063604284563462,0,41.57636078203524)" x="176.96348571777344"/><path d="M354.62490954619193 440.8523653222737L354.62490954619193 440.8523653222737Q332.92471720304286 440.8523653222737 317.13524391717056 431.3042806912882Q301.3871043309995 421.79752976000384 292.8723621925448 404.68537808369194Q284.3989537537914 387.57322640738005 284.3989537537914 364.96369267080377L284.3989537537914 364.96369267080377Q284.3989537537914 342.0234893366176 292.8723621925448 325.3660083570194Q301.3871043309995 308.7085273774211 317.13524391717056 299.7804482419541Q332.92471720304286 290.852369106487 354.62490954619193 290.852369106487L354.62490954619193 290.852369106487Q368.0170282493925 290.852369106487 381.1198110546845 295.6057445721292Q394.22259385997637 300.35912003777133 402.8613370975348 308.9978632753298L402.8613370975348 308.9978632753298L394.511929757885 326.56468564835524Q385.8731865203266 318.2152783087055 375.62242899442003 314.3712442364905Q365.3716714685134 310.4858764645743 356.1129227354364 310.4858764645743L356.1129227354364 310.4858764645743Q333.50338899886015 310.4858764645743 321.3099475869954 324.62200176239713Q309.1165061751307 338.75812706022 309.1165061751307 365.25302856871247L309.1165061751307 365.25302856871247Q309.1165061751307 391.1279245816864 321.3099475869954 406.17339127293644Q333.50338899886015 421.2188579641865 356.1129227354364 421.2188579641865L356.1129227354364 421.2188579641865Q365.3716714685134 421.2188579641865 375.62242899442003 417.3334901922703Q385.8731865203266 413.448122420354 394.511929757885 404.8507128824969L394.511929757885 404.8507128824969L402.8613370975348 422.3762015558211Q394.22259385997637 431.0149447933795 380.99580995558074 435.9336550578266Q367.7276923514839 440.8523653222737 354.62490954619193 440.8523653222737Z " fill="#16252d" transform="matrix(0.7063604284563461,0,0,0.7063604284563462,0,41.57636078203524)"/><path d="M633.2215747729881 410.65197289058165L633.2215747729881 410.65197289058165Q620.987613925759 410.65197289058165 612.0859509854894 405.26903011780087Q603.207590827786 399.9093901275862 598.4072176191589 390.2620381451999Q593.6301471930981 380.6146861628135 593.6301471930981 367.86806409912907L593.6301471930981 367.86806409912907Q593.6301471930981 354.9350197749154 598.4072176191589 345.5439984007567Q603.207590827786 336.152977026598 612.0859509854894 331.1195759923095Q620.987613925759 326.08617495802093 633.2215747729881 326.08617495802093L633.2215747729881 326.08617495802093Q640.7716763244209 326.08617495802093 648.1586583978906 328.76599495312826Q655.5456404713605 331.4458149482356 660.4159220276858 336.3160965045611L660.4159220276858 336.3160965045611L655.7087599493234 346.2197790951751Q650.838478392998 341.51261701681267 645.0593883165925 339.34545823816063Q639.2802982401872 337.1549966769425 634.0604749453695 337.1549966769425L634.0604749453695 337.1549966769425Q621.3138528816851 337.1549966769425 614.4395320246706 345.124548314566Q607.5652111676561 353.09409995218954 607.5652111676561 368.0311835770921L607.5652111676561 368.0311835770921Q607.5652111676561 382.6187254635024 614.4395320246706 391.10093831758127Q621.3138528816851 399.5831511716601 634.0604749453695 399.5831511716601L634.0604749453695 399.5831511716601Q639.2802982401872 399.5831511716601 645.0593883165925 397.39268961044195Q650.838478392998 395.2022280492238 655.7087599493234 390.3552492754645L655.7087599493234 390.3552492754645L660.4159220276858 400.2356290835123Q655.5456404713605 405.1059106398378 648.0887500501922 407.87894176520973Q640.6085568464578 410.65197289058165 633.2215747729881 410.65197289058165ZM705.2038701198273 410.65197289058165L705.2038701198273 410.65197289058165Q695.3001875292134 410.65197289058165 688.8453167583897 407.04004159282835Q682.390445987566 403.428110295075 679.1280564283048 396.2275504821344Q675.8423640864776 389.00368788662774 675.8423640864776 378.26110512363226L675.8423640864776 378.26110512363226L675.8423640864776 327.6008558248207L689.4278863225434 327.6008558248207L689.4278863225434 378.0979856456692Q689.4278863225434 385.3218482411759 691.3620172755338 390.09891866723683Q693.2961482285245 394.8759890932977 697.4906490904316 397.1363590022143Q701.6851499523386 399.39672891113094 707.8836901149348 399.39672891113094L707.8836901149348 399.39672891113094Q714.9444332324783 399.39672891113094 720.14095374473 396.2275504821344Q725.3374742569815 393.0350692705718 728.3668359905812 387.32588754186486Q731.3728949416147 381.616705813158 731.3728949416147 373.9034847837621L731.3728949416147 373.9034847837621L731.3728949416147 327.6008558248207L744.9817199602467 327.6008558248207L744.9817199602467 409.13729202378187L731.722436680107 409.13729202378187L731.722436680107 390.3552492754645L733.889595458759 390.3552492754645Q730.5339947692332 400.2356290835123 722.913984870102 405.45545237833005Q715.2706721884044 410.65197289058165 705.2038701198273 410.65197289058165ZM795.478849781095 410.65197289058165L795.478849781095 410.65197289058165Q783.0584666733369 410.65197289058165 776.7667153804762 403.2649908171119Q770.4749640876155 395.87800874364217 770.4749640876155 382.12936702961326L770.4749640876155 382.12936702961326L770.4749640876155 290.8523677180011L784.0604863236813 290.8523677180011L784.0604863236813 381.1273473792688Q784.0604863236813 386.99964858593876 785.6683783207457 391.0077271873167Q787.2529675352439 395.0391085712607 790.4454487468065 397.06645065451585Q793.6379299583691 399.07048995520483 798.3217892541654 399.07048995520483L798.3217892541654 399.07048995520483Q800.3491313374207 399.07048995520483 802.259959507845 398.81415934697714Q804.1940904608355 398.5578287387495 805.8718908055982 398.06847030486034L805.8718908055982 398.06847030486034L805.5456518496721 409.463530979708Q802.8658318545649 409.9761921961633 800.4190396851191 410.3024311520894Q797.9955502982393 410.65197289058165 795.478849781095 410.65197289058165ZM845.1370794295622 410.65197289058165L845.1370794295622 410.65197289058165Q832.716696321804 410.65197289058165 826.4249450289431 403.2649908171119Q820.1331937360826 395.87800874364217 820.1331937360826 382.12936702961326L820.1331937360826 382.12936702961326L820.1331937360826 290.8523677180011L833.7187159721484 290.8523677180011L833.7187159721484 381.1273473792688Q833.7187159721484 386.99964858593876 835.3266079692128 391.0077271873167Q836.911197183711 395.0391085712607 840.1036783952736 397.06645065451585Q843.2961596068362 399.07048995520483 847.9800189026325 399.07048995520483L847.9800189026325 399.07048995520483Q850.0073609858878 399.07048995520483 851.9414919388782 398.81415934697714Q853.8523201093026 398.5578287387495 855.5301204540654 398.06847030486034L855.5301204540654 398.06847030486034L855.2038814981393 409.463530979708Q852.524061503032 409.9761921961633 850.0772693335862 410.3024311520894Q847.6537799467064 410.65197289058165 845.1370794295622 410.65197289058165ZM884.8916264874151 307.3041322097035L868.1136230397867 307.3041322097035L868.1136230397867 292.01750684630866L884.8916264874151 292.01750684630866L884.8916264874151 307.3041322097035ZM883.4002484031816 409.13729202378187L869.7914233845495 409.13729202378187L869.7914233845495 327.6008558248207L883.4002484031816 327.6008558248207L883.4002484031816 409.13729202378187ZM944.8030804649886 440.8523790963129L944.8030804649886 440.8523790963129Q934.2236171799561 440.8523790963129 924.9258069360619 438.079347970941Q915.6046939096018 435.3063168455691 908.3808313140951 429.7835573773914L908.3808313140951 429.7835573773914L912.9248739144946 419.87987478677735Q917.9582749487831 423.39859495426606 922.8984648528069 425.65896486318275Q927.861957539397 427.9193347720993 933.1283863993472 428.94465720500995Q938.4181180418634 429.94667685535444 944.1272997705703 429.94667685535444L944.1272997705703 429.94667685535444Q956.0350216618733 429.94667685535444 962.1636534767708 423.5617144322291Q968.2922852916683 417.20005479167 968.2922852916683 405.1059106398378L968.2922852916683 405.1059106398378L968.2922852916683 386.16074841355737L969.9700856364313 386.16074841355737Q967.4533851192868 395.87800874364217 959.3207140037005 401.5871904723491Q951.1647401055477 407.296372201056 940.2590378645891 407.296372201056L940.2590378645891 407.296372201056Q929.0270966677047 407.296372201056 920.8012144218535 402.16976003650285Q912.5753321760021 397.06645065451585 908.1478034884335 387.8385487583202Q903.6969720182988 378.61064686212455 903.6969720182988 366.51650271029234L903.6969720182988 366.51650271029234Q903.6969720182988 354.44566134102627 908.1478034884335 345.2876677925291Q912.5753321760021 336.152977026598 920.8012144218535 331.1195759923095Q929.0270966677047 326.08617495802093 940.2590378645891 326.08617495802093L940.2590378645891 326.08617495802093Q951.351162366077 326.08617495802093 959.3906223513989 331.7021455564633Q967.4533851192868 337.31811615490557 969.8069661584682 346.89555978959345L969.8069661584682 346.89555978959345L968.2922852916683 346.89555978959345L968.2922852916683 327.6008558248207L981.551568571808 327.6008558248207L981.551568571808 403.2649908171119Q981.551568571808 415.6853739248702 977.4269760575994 424.07437564868445Q973.3256863259569 432.4633773724987 965.0998040801057 436.6578782344058Q956.8739218342546 440.8523790963129 944.8030804649886 440.8523790963129ZM942.7757383817334 396.2275504821344L942.7757383817334 396.2275504821344Q954.5203407950735 396.2275504821344 961.4179644346539 388.1647877142463Q968.2922852916683 380.10202494635814 968.2922852916683 366.51650271029234L968.2922852916683 366.51650271029234Q968.2922852916683 352.9309804742265 961.4179644346539 344.961428836603Q954.5203407950735 336.99187719897947 942.7757383817334 336.99187719897947L942.7757383817334 336.99187719897947Q931.2175582289228 336.99187719897947 924.3199345893422 344.961428836603Q917.4456137323277 352.9309804742265 917.4456137323277 366.51650271029234L917.4456137323277 366.51650271029234Q917.4456137323277 380.10202494635814 924.3199345893422 388.1647877142463Q931.2175582289228 396.2275504821344 942.7757383817334 396.2275504821344ZM1043.7933008059965 410.65197289058165L1043.7933008059965 410.65197289058165Q1030.860256481783 410.65197289058165 1021.5624462378887 405.52536072602857Q1012.2413332114286 400.4220513440415 1007.1380238294416 391.0077271873167Q1002.0114116648883 381.616705813158 1002.0114116648883 368.54384479354746L1002.0114116648883 368.54384479354746Q1002.0114116648883 355.77391994729686 1007.0448126991769 346.3129902254397Q1012.0782137334654 336.82875772101636 1020.8866655434704 331.4458149482356Q1029.6951173534753 326.08617495802093 1041.2766002888523 326.08617495802093L1041.2766002888523 326.08617495802093Q1052.3454220077738 326.08617495802093 1060.2217625151327 330.9564565143464Q1068.1214058050577 335.8267380706719 1072.3858150146634 344.70509822837533Q1076.673527006835 353.6067611686449 1076.673527006835 366.0271442764032L1076.673527006835 366.0271442764032L1076.673527006835 371.2236647886548L1012.4044526893917 371.2236647886548L1012.4044526893917 362.3220018483852L1067.6087445886026 362.3220018483852L1064.9289245934951 364.51246340960336Q1064.9289245934951 351.0900606515006 1058.9634122565606 343.60986744776625Q1053.021202702192 336.152977026598 1041.6028392447784 336.152977026598L1041.6028392447784 336.152977026598Q1033.050718043001 336.152977026598 1027.0852057060665 340.0911472802775Q1021.1429961516981 344.02931753395694 1018.1136344180986 350.99684952123596Q1015.1075754670651 357.96438150851503 1015.1075754670651 367.1922834047107L1015.1075754670651 367.1922834047107L1015.1075754670651 368.1943030550552Q1015.1075754670651 378.4242246015953 1018.3699650263261 385.484967719139Q1021.6323545855873 392.52240805411645 1028.1804364866755 396.1343393518698Q1034.7285183877639 399.74627064962317 1043.7933008059965 399.74627064962317L1043.7933008059965 399.74627064962317Q1050.993860618937 399.74627064962317 1057.7982731282532 397.48590074070654Q1064.602685637569 395.2022280492238 1070.638106322202 390.0057075369722L1070.638106322202 390.0057075369722L1075.3219656179983 399.5831511716601Q1069.7992061498207 404.61655220594866 1061.2470849480435 407.6226111569821Q1052.6716609637 410.65197289058165 1043.7933008059965 410.65197289058165ZM1109.903294946166 409.13729202378187L1096.294469927534 409.13729202378187L1096.294469927534 327.6008558248207L1109.5537532076737 327.6008558248207L1109.5537532076737 345.70711787871977L1107.7128333849478 345.70711787871977Q1111.2315535524365 335.989857548635 1119.20110519006 331.0263648620449Q1127.1706568276836 326.08617495802093 1137.587000634753 326.08617495802093L1137.587000634753 326.08617495802093Q1147.3042609648378 326.08617495802093 1153.7591317356614 329.53498677781124Q1160.2373052890514 332.9604958150354 1163.4064837180479 340.1843584105421Q1166.5989649296105 347.38491822348266 1166.5989649296105 358.29062046444113L1166.5989649296105 358.29062046444113L1166.5989649296105 409.13729202378187L1153.0134426935447 409.13729202378187L1153.0134426935447 359.1295206368226Q1153.0134426935447 351.57941908538976 1151.0793117405542 346.7324403116304Q1149.1451807875637 341.8621587553049 1145.0438910559212 339.50857771612374Q1140.9426013242787 337.1549966769425 1134.3945194231903 337.1549966769425L1134.3945194231903 337.1549966769425Q1127.0075373497205 337.1549966769425 1121.4614750989765 340.3474778885051Q1115.938715630799 343.5399591000678 1112.9093538971993 349.24914082877467Q1109.903294946166 354.9350197749154 1109.903294946166 362.6715435868775L1109.903294946166 362.6715435868775L1109.903294946166 409.13729202378187ZM1224.3199573459658 410.65197289058165L1224.3199573459658 410.65197289058165Q1209.8955349375185 410.65197289058165 1202.6716723420118 402.93875186118584Q1195.4711125290712 395.2022280492238 1195.4711125290712 380.9409251187396L1195.4711125290712 380.9409251187396L1195.4711125290712 338.15701632728695L1179.532009253824 338.15701632728695L1179.532009253824 327.6008558248207L1195.4711125290712 327.6008558248207L1195.4711125290712 302.5969701313411L1209.0566347651372 302.5969701313411L1209.0566347651372 327.6008558248207L1234.8994206309983 327.6008558248207L1234.8994206309983 338.15701632728695L1209.0566347651372 338.15701632728695L1209.0566347651372 379.612666512469Q1209.0566347651372 389.1668073645908 1213.088016149081 394.1303000511809Q1217.096094750459 399.07048995520483 1226.1608771686917 399.07048995520483L1226.1608771686917 399.07048995520483Q1228.840697163799 399.07048995520483 1231.5438199414725 398.39470926078644Q1234.2236399365797 397.71892856636805 1236.3907987152318 397.06645065451585L1236.3907987152318 397.06645065451585L1238.744379754413 407.45949167901904Q1236.577220975761 408.6246308073266 1232.382720113854 409.6499532402372Q1228.1882192519467 410.65197289058165 1224.3199573459658 410.65197289058165Z " fill="#16252d" transform="matrix(0.7063604284563461,0,0,0.7063604284563462,0,41.57636078203524)"/></g></svg>