<?xml version="1.0" encoding="utf-8"?>
<!-- Generator: Adobe Illustrator 27.5.0, SVG Export Plug-In . SVG Version: 6.00 Build 0)  -->
<svg version="1.1" xmlns="http://www.w3.org/2000/svg" xmlns:xlink="http://www.w3.org/1999/xlink" x="0px" y="0px"
	 viewBox="0 0 750 500" style="enable-background:new 0 0 750 500;" xml:space="preserve">
<g id="Background_Simple">
	<g>
		<path style="fill:#92E3A9;" d="M57.217,376.641c0,0-15.296-104.999,40.535-193.182C153.584,95.277,236.183,71.532,338.668,65.894
			c102.485-5.638,188.144-34.54,271.508,26.659c83.365,61.199,73.422,164.573,68.833,213.99
			c-4.589,49.417,22.179,103.148,3.824,137.912c-18.355,34.764-53.537,58.503-168.258,31.231
			c-114.722-27.272-208.029-30.22-269.979-18.148C182.646,469.611,66.395,479.717,57.217,376.641z"/>
		<path style="opacity:0.7;fill:#FFFFFF;" d="M57.217,376.641c0,0-15.296-104.999,40.535-193.182
			C153.584,95.277,236.183,71.532,338.668,65.894c102.485-5.638,188.144-34.54,271.508,26.659
			c83.365,61.199,73.422,164.573,68.833,213.99c-4.589,49.417,22.179,103.148,3.824,137.912
			c-18.355,34.764-53.537,58.503-168.258,31.231c-114.722-27.272-208.029-30.22-269.979-18.148
			C182.646,469.611,66.395,479.717,57.217,376.641z"/>
	</g>
</g>
<g id="Clouds">
	<g>
		<path style="fill:none;stroke:#263238;stroke-miterlimit:10;" d="M556.744,205.077c-4.259,3.252-6.957,6.652-9.331,8.432
			c-4.35,3.262-11.962-2.175-17.399-2.175s-15.224,11.962-15.224,11.962h204.44c0,0-8.7-8.7-17.399-11.962
			c-8.7-3.262-14.137,1.087-20.661,3.262c0,0-1.517-9.104-5.771-19.75"/>
		<path style="fill:none;stroke:#263238;stroke-miterlimit:10;" d="M672.516,188.349c-4.716-9.582-11.709-19.191-21.794-23.775
			c-23.924-10.874-51.11,10.875-58.722,29.361c-7.612,18.487-6.525,1.087-20.662,4.35c-2.995,0.691-5.6,1.626-7.887,2.702"/>
		<path style="fill:none;stroke:#263238;stroke-miterlimit:10;" d="M497.276,73.011c-2.348-3.227-5.287-6.036-8.934-7.693
			c-13.656-6.207-29.174,6.207-33.52,16.76c-4.345,10.552-3.724,0.621-11.794,2.483c-8.07,1.862-11.173,6.828-13.656,8.69
			c-2.483,1.862-6.828-1.241-9.932-1.241s-8.69,6.828-8.69,6.828h116.698c0,0-4.966-4.966-9.932-6.828
			c-4.966-1.862-8.07,0.621-11.794,1.862c0,0-1.416-8.498-5.705-16.469"/>
		<path style="fill:none;stroke:#263238;stroke-miterlimit:10;" d="M135.451,202.687h45.115c0,0-4.966-4.966-9.932-6.828
			c-4.966-1.862-8.07,0.621-11.794,1.862c0,0-3.724-22.346-17.381-28.554c-13.656-6.207-29.175,6.207-33.52,16.76
			c-4.345,10.553-3.724,0.621-11.794,2.483c-8.07,1.862-11.173,6.828-13.656,8.69c-2.483,1.862-6.828-1.242-9.932-1.242
			c-3.104,0-8.69,6.828-8.69,6.828h63.25"/>
	</g>
</g>
<g id="Iceberg">
	<g>
		<path style="fill:#FFFFFF;stroke:#263238;stroke-miterlimit:10;" d="M118.831,391.813l-15.817-128.247
			c0,0-0.649-16.235,9.091-23.378c9.741-7.143,57.796-6.494,64.29-7.793c6.494-1.299,13.637-12.988,25.326-17.534
			c11.689-4.546,53.25,0.649,53.25,0.649s63.641-27.924,76.629-39.613c12.988-11.689,57.147-37.016,81.174-32.47
			c24.026,4.545,102.593,92.201,108.448,99.356c5.842,7.139,16.447,6.807,24.418,9.415c6.797,2.224,9.216,8.943,13.482,13.956
			c5.134,6.032,12.71,9.1,20.546,9.1c7.793,0,32.47-3.247,52.601-1.948c20.131,1.299,34.418,13.637,34.418,13.637
			s11.689,3.247,12.988,6.494c1.299,3.247-11.487,98.527-11.487,98.527L118.831,391.813z"/>
		<path style="fill:#263238;stroke:#263238;stroke-miterlimit:10;" d="M116.67,234.618c0,0-13.951,3.22-18.781,11.268
			c-4.829,8.049-3.756,14.488-1.073,22c2.683,7.512,6.976,28.44,6.976,38.635c0,10.195,10.195,3.756,11.268-1.073
			c1.073-4.829-1.61-36.488,2.683-43.464c4.293-6.976,5.903,3.756,8.586,4.293c2.683,0.537,9.659,1.073,14.488-6.439
			c4.829-7.512,8.049-6.976,16.634-5.366c8.585,1.61,11.805-1.073,15.025-4.829c3.219-3.756,8.586-2.146,10.732,2.683
			c2.146,4.829,18.244,8.586,24.147-0.537c5.902-9.122,5.902-19.854,13.415-20.927c7.512-1.073,20.927,5.366,25.756,3.756
			c4.829-1.61,14.488-13.415,20.391-9.659c5.902,3.756,3.22,18.244,9.122,24.683c5.902,6.439,15.025,1.073,18.781-10.195
			c3.756-11.268,4.293-24.683,7.512-27.366c3.219-2.683,38.635-22.537,45.61-27.366c6.976-4.829,15.561,7.512,23.61,7.512
			c8.049,0,13.415-15.561,16.098-20.927c2.683-5.366,20.391-11.805,23.61-8.585c3.22,3.22,3.756,39.171,8.049,52.05
			c4.293,12.878,20.927-5.366,27.903-19.317c6.976-13.952,8.049-5.903,10.732,4.293c2.683,10.195,8.049,47.22,17.171,48.294
			c9.122,1.073,10.732-17.708,13.952-16.635c3.22,1.073,4.829,7.512,6.439,11.269c1.61,3.756-2.146,20.391,8.586,26.293
			s14.488-13.951,19.317-10.732c4.829,3.22,2.683,10.195,9.122,9.122c6.439-1.073,10.732-2.146,13.415,3.756
			c2.683,5.902,1.61,24.147,6.976,36.488c5.366,12.342,21.464,5.366,24.683-1.073c3.219-6.439,7.512-18.244,10.195-17.171
			c2.683,1.073,10.195,13.415,16.634,7.512c6.439-5.902,6.976-10.195,11.805-11.268c4.829-1.073,9.659,13.415,15.025,19.854
			c5.366,6.439,15.025,10.732,24.147,1.61c9.122-9.122,14.488-8.049,15.561-1.073c1.073,6.976-3.22,29.513,4.293,25.22
			c7.512-4.293,10.732-22.537,10.732-30.049c0-7.512-5.366-11.268-9.659-11.805c-4.293-0.537-3.756-1.073-12.878-7.512
			c-9.122-6.439-39.708-12.878-50.44-11.268c-10.732,1.61-44.537,8.049-47.757,2.146c-3.22-5.903-7.512-18.244-17.171-20.927
			c-9.659-2.683-22-6.976-24.147-9.659c-2.146-2.683-48.293-56.879-67.611-72.44c-19.317-15.561-37.025-30.586-51.513-32.196
			c-14.488-1.61-32.196,5.903-44.537,12.878c-12.342,6.976-97.66,60.635-104.636,62.782c-6.976,2.146-42.927-7.512-52.05-3.22
			c-9.122,4.293-16.098,18.781-23.074,21.464C173.549,234.082,128.475,226.033,116.67,234.618z"/>
		<path style="fill:#FFFFFF;stroke:#263238;stroke-miterlimit:10;" d="M116.67,229.901c0,0-13.951,3.22-18.781,11.268
			c-4.829,8.049-3.756,14.488-1.073,22c2.683,7.512,6.976,28.439,6.976,38.635s10.195,3.756,11.268-1.073
			c1.073-4.829-1.61-36.488,2.683-43.464c4.293-6.976,5.903,3.756,8.586,4.293c2.683,0.536,9.659,1.073,14.488-6.439
			c4.829-7.512,8.049-6.976,16.634-5.366c8.585,1.61,11.805-1.073,15.025-4.829c3.219-3.756,8.586-2.146,10.732,2.683
			c2.146,4.829,18.244,8.585,24.147-0.537c5.902-9.122,5.902-19.854,13.415-20.927c7.512-1.073,20.927,5.366,25.756,3.756
			c4.829-1.61,14.488-13.415,20.391-9.659c5.902,3.756,3.22,18.244,9.122,24.683c5.902,6.439,15.025,1.073,18.781-10.195
			c3.756-11.268,4.293-24.683,7.512-27.366c3.219-2.683,38.635-22.537,45.61-27.366s15.561,7.512,23.61,7.512
			c8.049,0,13.415-15.561,16.098-20.927c2.683-5.366,20.391-11.805,23.61-8.585c3.22,3.219,3.756,39.171,8.049,52.049
			c4.293,12.878,20.927-5.366,27.903-19.317c6.976-13.951,8.049-5.903,10.732,4.293c2.683,10.195,8.049,47.22,17.171,48.294
			c9.122,1.073,10.732-17.708,13.952-16.634c3.22,1.073,4.829,7.512,6.439,11.268c1.61,3.756-2.146,20.391,8.586,26.293
			c10.732,5.903,14.488-13.951,19.317-10.732c4.829,3.22,2.683,10.195,9.122,9.122c6.439-1.073,10.732-2.146,13.415,3.756
			c2.683,5.902,1.61,24.147,6.976,36.488c5.366,12.342,21.464,5.366,24.683-1.073c3.219-6.439,7.512-18.244,10.195-17.171
			c2.683,1.073,10.195,13.415,16.634,7.512c6.439-5.902,6.976-10.195,11.805-11.268c4.829-1.073,9.659,13.415,15.025,19.854
			c5.366,6.439,15.025,10.732,24.147,1.61c9.122-9.122,14.488-8.049,15.561-1.073c1.073,6.976-3.22,29.513,4.293,25.22
			c7.512-4.293,10.732-22.537,10.732-30.049c0-7.512-5.366-11.268-9.659-11.805c-4.293-0.537-3.756-1.073-12.878-7.512
			c-9.122-6.439-39.708-12.878-50.44-11.269c-10.732,1.61-44.537,8.049-47.757,2.146c-3.22-5.903-7.512-18.244-17.171-20.927
			c-9.659-2.683-22-6.976-24.147-9.659c-2.146-2.683-48.293-56.879-67.611-72.44c-19.317-15.561-37.025-30.586-51.513-32.196
			c-14.488-1.61-32.196,5.903-44.537,12.878c-12.342,6.976-97.66,60.635-104.636,62.782c-6.976,2.146-42.927-7.512-52.05-3.22
			c-9.122,4.293-16.098,18.781-23.074,21.464C173.549,229.364,128.475,221.315,116.67,229.901z"/>
		<line style="fill:none;stroke:#263238;stroke-miterlimit:10;" x1="153.001" y1="267.112" x2="152.622" y2="256.194"/>
		<polyline style="fill:none;stroke:#263238;stroke-miterlimit:10;" points="147.256,250.828 156.378,364.586 153.23,273.736 		"/>
		<line style="fill:none;stroke:#263238;stroke-miterlimit:10;" x1="207.752" y1="337.052" x2="207.355" y2="329.171"/>
		<line style="fill:none;stroke:#263238;stroke-miterlimit:10;" x1="210.574" y1="393.025" x2="208.104" y2="344.036"/>
		<line style="fill:none;stroke:#263238;stroke-miterlimit:10;" x1="599.103" y1="374.926" x2="597.665" y2="386.485"/>
		<line style="fill:none;stroke:#263238;stroke-miterlimit:10;" x1="609.8" y1="288.926" x2="599.979" y2="367.88"/>
		<line style="fill:none;stroke:#263238;stroke-miterlimit:10;" x1="519.652" y1="259.413" x2="517.506" y2="278.194"/>
		<line style="fill:none;stroke:#263238;stroke-miterlimit:10;" x1="509.835" y1="339.519" x2="504.628" y2="385.513"/>
		<line style="fill:none;stroke:#263238;stroke-miterlimit:10;" x1="511.067" y1="328.634" x2="510.3" y2="335.406"/>
		<line style="fill:none;stroke:#263238;stroke-miterlimit:10;" x1="666.142" y1="301.804" x2="662.923" y2="332.39"/>
	</g>
</g>
<g id="Floor">
	<g>
		<g>
			<line style="fill:#FFFFFF;stroke:#263238;stroke-miterlimit:10;" x1="75.419" y1="392.146" x2="725.866" y2="392.146"/>
			<line style="fill:#FFFFFF;stroke:#263238;stroke-miterlimit:10;" x1="53.01" y1="392.146" x2="66.916" y2="392.146"/>
		</g>
		<g>
			<line style="fill:none;stroke:#263238;stroke-miterlimit:10;" x1="147.214" y1="392.006" x2="147.214" y2="410.289"/>
			<line style="fill:none;stroke:#263238;stroke-miterlimit:10;" x1="168.544" y1="423.983" x2="168.544" y2="454.473"/>
			<line style="fill:none;stroke:#263238;stroke-miterlimit:10;" x1="168.544" y1="408.004" x2="168.544" y2="419.037"/>
		</g>
		<g>
			<line style="fill:none;stroke:#263238;stroke-miterlimit:10;" x1="541.059" y1="392.006" x2="541.059" y2="410.289"/>
			<line style="fill:none;stroke:#263238;stroke-miterlimit:10;" x1="562.389" y1="443.767" x2="562.389" y2="454.473"/>
			<line style="fill:none;stroke:#263238;stroke-miterlimit:10;" x1="562.389" y1="408.004" x2="562.389" y2="437.997"/>
		</g>
		<g>
			<line style="fill:none;stroke:#263238;stroke-miterlimit:10;" x1="336.137" y1="408.004" x2="336.137" y2="436.951"/>
		</g>
		<g>
			<line style="fill:none;stroke:#263238;stroke-miterlimit:10;" x1="636.282" y1="392.006" x2="636.282" y2="410.289"/>
			<line style="fill:none;stroke:#263238;stroke-miterlimit:10;" x1="657.612" y1="408.004" x2="657.612" y2="454.473"/>
		</g>
	</g>
</g>
<g id="Penguin">
	<g>
		<path style="fill:#92E3A9;stroke:#263238;stroke-miterlimit:10;" d="M400.74,431.389c0,0,7.098,32.15,20.041,41.335
			c12.943,9.186,20.459,7.098,21.711,5.01c1.253-2.088,0.835-7.933,2.088-8.351c1.253-0.417,9.603,2.505,14.196,0.418
			c4.593-2.088-1.67-8.351-1.67-10.438c0-2.088,7.098-0.835,8.351-5.428s-17.954-7.933-27.974-10.856
			c-10.021-2.923-20.459-11.691-21.294-12.943C415.353,428.884,407.003,430.972,400.74,431.389z"/>
		<path style="fill:#263238;stroke:#263238;stroke-miterlimit:10;" d="M355.647,219.286c0,0-12.943,22.129-28.809,62.212
			c-15.866,40.083-27.557,108.14-27.557,108.14s7.515,15.448,12.943,14.613c5.428-0.835,11.691-6.68,13.778-6.263
			c2.088,0.418,16.701,12.526,39.665,20.041c22.964,7.516,32.567,5.845,33.82,9.186c1.253,3.34,0.835,7.098,6.681,7.933
			c5.845,0.835,16.701-4.175,19.624-8.351c2.923-4.175,5.428-7.516,5.428-7.516s31.732-23.799,40.083-39.248
			c8.35-15.448,5.01-15.448-1.67-12.526c-6.681,2.923-6.681,2.923-6.681,2.923s11.273-7.516,6.681-44.676
			c-4.593-37.16-13.361-70.562-13.361-70.562s-17.536,6.68-58.454-9.603C356.899,229.306,355.647,219.286,355.647,219.286z"/>
		<ellipse style="fill:#FFFFFF;stroke:#263238;stroke-miterlimit:10;" cx="387.286" cy="324.711" rx="65.228" ry="88.307"/>
		<path style="fill:#92E3A9;stroke:#263238;stroke-miterlimit:10;" d="M361.91,197.574c0,0-8.768,17.119-9.186,23.382
			c-0.418,6.263,2.088,29.227,38.83,38.83c36.742,9.603,65.552,4.175,69.727-2.923c4.175-7.098,4.175-22.964,4.175-22.964
			s-54.279,3.758-76.408-9.186C366.92,211.77,361.91,197.574,361.91,197.574z"/>
		<g>
			<path style="fill:#263238;" d="M366.703,248.189l11.279-31.07c-2.835-2.288-5.208-4.52-7.175-6.61l-11.123,30.642
				C361.52,243.526,363.823,245.906,366.703,248.189z"/>
			<path style="fill:#263238;" d="M411.041,263.656l8.419-30.72c-3.034-0.351-6.047-0.779-8.976-1.3l-8.372,30.547
				C405.165,262.776,408.146,263.265,411.041,263.656z"/>
			<path style="fill:#263238;" d="M462.366,234.07c-2.138,0.102-5.282,0.223-9.115,0.289l-3.744,28.545
				c4.231-1.016,7.485-2.343,9.579-3.83L462.366,234.07z"/>
			<path style="fill:#263238;" d="M443.837,234.381c-2.898-0.037-5.968-0.117-9.135-0.259l-6.34,30.825
				c3.28,0.032,6.366-0.072,9.247-0.286L443.837,234.381z"/>
			<path style="fill:#263238;" d="M380.444,256.079c2.589,1.075,5.41,2.073,8.495,2.973l10.77-29.916
				c-3.056-0.913-5.892-1.977-8.408-3.216L380.444,256.079z"/>
		</g>
		<path style="fill:#263238;stroke:#263238;stroke-miterlimit:10;" d="M401.687,113.127c0,0,46.249-12.613,60.613-15.767
			c14.365-3.153,21.022-1.051,23.124,0.35c2.102,1.401,25.927,27.329,31.533,43.095c5.606,15.766,9.46,28.73,8.409,29.781
			c-1.051,1.051-4.905-3.504-9.81-6.307c-4.905-2.803-10.161-6.657-10.161-6.657s1.051,11.212,0.701,19.621
			s-2.803,15.766-2.803,15.766s-12.263-41.343-39.241-59.212c-26.978-17.869-72.876-15.066-72.876-15.066L401.687,113.127z"/>
		<path style="fill:#FFFFFF;stroke:#263238;stroke-miterlimit:10;" d="M366.65,154.47c-0.825,0.651-1.402-7.007,1.401-11.912
			c2.803-4.905,9.46-19.27,15.767-23.124c6.307-3.854,39.241-21.723,83.037,7.007c43.796,28.73,37.139,62.365,37.139,70.424
			c0,8.059-8.759,15.416-10.861,17.869c-2.102,2.452-5.255,7.708-10.861,9.11c-5.606,1.401-8.409,0.35-8.409,0.35
			s11.212-14.015,9.11-34.686c-2.102-20.672-22.774-46.248-50.453-52.905C404.84,129.944,393.278,133.448,366.65,154.47z"/>
		<path style="fill:#92E3A9;stroke:#263238;stroke-miterlimit:10;" d="M446.668,243.085c0,0,13.361,6.263,15.031,25.052
			c1.67,18.789,15.031,42.17,34.655,46.763c19.624,4.593,29.227,1.67,29.227,1.67l3.758-26.304c0,0-21.294,5.428-30.897-12.108
			c-9.603-17.536-16.701-32.567-22.964-38.412c-6.263-5.845-10.021-5.845-10.021-5.845S454.183,241.832,446.668,243.085z"/>
		<g>
			<path style="fill:#263238;" d="M457.351,253.795l21.471-10.199c-1.145-1.532-2.259-2.838-3.345-3.852
				c-1.268-1.183-2.427-2.117-3.479-2.87l-20.427,9.703C453.429,248.264,455.531,250.628,457.351,253.795z"/>
			<path style="fill:#263238;" d="M504.428,285.429l-25.893,19c2.22,2.234,4.629,4.216,7.203,5.877l27.698-20.325
				C510.384,289.15,507.262,287.734,504.428,285.429z"/>
			<path style="fill:#263238;" d="M493.536,269.057c-1.476-2.767-2.887-5.421-4.245-7.946l-26.74,12.782
				c0.59,2.904,1.423,5.857,2.491,8.784L493.536,269.057z"/>
		</g>
		
			<ellipse transform="matrix(0.3171 -0.9484 0.9484 0.3171 110.8853 528.7292)" style="fill:#263238;stroke:#263238;stroke-miterlimit:10;" cx="422.596" cy="187.365" rx="56.935" ry="67.125"/>
		
			<ellipse transform="matrix(0.6732 -0.7395 0.7395 0.6732 39.6549 451.2154)" style="fill:#FFFFFF;stroke:#263238;stroke-miterlimit:10;" cx="530.272" cy="180.747" rx="10.861" ry="10.861"/>
		<path style="fill:none;stroke:#969696;stroke-miterlimit:10;" d="M495.189,118.921c-1.045-2.2-2.194-4.377-3.457-6.495"/>
		<path style="fill:none;stroke:#969696;stroke-miterlimit:10;" d="M505.396,157.623c0,0-1.121-16.136-7.664-32.814"/>
		<path style="fill:#FFFFFF;stroke:#263238;stroke-miterlimit:10;" d="M443.348,156.935c-9.265-0.501-24.54,12.52-30.049,23.539
			l-5.259-6.01c0,0,7.763-4.507,10.517-20.033c2.755-15.525-22.036-21.535-44.573-10.016c-0.457,0.234-0.898,0.485-1.343,0.732
			c-6.192,5.674-10.961,12.724-13.705,20.931c-9.972,29.821,10.446,63.526,45.604,75.283c18.513,6.191,37.417,5.053,52.628-1.758
			c4.714-6.586,10.185-16.949,13.975-32.586C479.157,173.963,452.613,157.436,443.348,156.935z"/>
		<path style="fill:#263238;stroke:#263238;stroke-miterlimit:10;" d="M402.992,165.465c-0.905,2.434-2.992,3.903-4.663,3.282
			c-1.67-0.621-2.29-3.097-1.386-5.531c0.905-2.434,2.992-3.903,4.663-3.282C403.276,160.555,403.897,163.031,402.992,165.465z"/>
		<path style="fill:#263238;stroke:#263238;stroke-miterlimit:10;" d="M430.902,175.716c-0.905,2.434-2.992,3.903-4.663,3.282
			c-1.67-0.621-2.29-3.097-1.385-5.531c0.905-2.434,2.992-3.903,4.663-3.282C431.187,170.806,431.807,173.282,430.902,175.716z"/>
		
			<ellipse transform="matrix(0.1312 -0.9914 0.9914 0.1312 185.9508 612.5213)" style="fill:#92E3A9;" cx="442.451" cy="200.166" rx="14.494" ry="16.993"/>
		
			<ellipse transform="matrix(0.3373 -0.9414 0.9414 0.3373 90.4714 468.591)" style="fill:#92E3A9;" cx="378.075" cy="170.034" rx="13.198" ry="16.025"/>
		<g>
			<g>
				<path style="fill:#92E3A9;stroke:#263238;stroke-miterlimit:10;" d="M401.055,182.555c0,0-2.33,3.711-2.567,6.583
					c-0.237,2.872,0.005,6.94,0.831,7.441c0.826,0.502,6.688-0.46,10.648-1.145c3.96-0.685,7.285-2.435,8.707-3.907
					c1.423-1.473,2.997-5.614,2.997-5.614l-18.549-7.379L401.055,182.555z"/>
				<path style="fill:#263238;stroke:#263238;stroke-miterlimit:10;" d="M403.889,179.753c0,0-2.33,3.711-2.817,7.863
					c-0.487,4.152-0.437,7.048-0.437,7.048s8.339-1.191,11.771-2.498c3.433-1.307,6.183-3.104,6.96-3.762
					c0.777-0.659,1.063-2.37,1.063-2.37L403.889,179.753z"/>
			</g>
			<path style="fill:#FFFFFF;stroke:#263238;stroke-miterlimit:10;" d="M406.41,181.947c-1.094-0.441-4.285,8.214-1.988,8.873
				c1.226,0.352,8.933-1.773,10.926-3.115C417.338,186.367,406.463,181.968,406.41,181.947z"/>
			<path style="fill:#92E3A9;stroke:#263238;stroke-miterlimit:10;" d="M422.77,186.003c0,0,0.069-5.268-8.667-10.207
				c-8.736-4.94-19.138-2.986-18.947-0.861c0.19,2.125,8.361,9.479,13.331,11.296S419.476,190.422,422.77,186.003z"/>
		</g>
		<path style="fill:#92E3A9;stroke:#263238;stroke-miterlimit:10;" d="M312.224,403.21c0,0-11.534-14.246-18.743-31.341
			c-7.209-17.095-9.612-32.291-15.86-30.391c-6.248,1.899-3.845,10.922-7.209,14.246c-3.364,3.324-9.612-17.095-16.821-14.246
			c-7.209,2.849-2.403,13.296-1.442,17.095c0.961,3.799-6.728-5.224-6.728,2.849c0,8.073-0.481,17.57,20.185,36.09
			S307.899,415.081,312.224,403.21z"/>
	</g>
	<g>
		<g>
			<path style="fill:#FFFFFF;stroke:#263238;stroke-miterlimit:10;" d="M263.622,133.949c-0.351,0-0.707-0.04-1.063-0.126
				c-2.454-0.585-3.968-3.048-3.383-5.501l23.545-98.747c0.324-1.361,1.255-2.498,2.525-3.086c1.27-0.587,2.74-0.56,3.987,0.074
				l41.466,21.084c2.248,1.143,3.144,3.893,2.001,6.141c-1.144,2.248-3.893,3.141-6.141,2.001l-36.298-18.457l-22.201,93.107
				C267.561,132.538,265.688,133.949,263.622,133.949z"/>
		</g>
		
			<ellipse transform="matrix(0.974 -0.2266 0.2266 0.974 -25.5595 65.6872)" style="fill:none;stroke:#263238;stroke-miterlimit:10;" cx="273.283" cy="144.153" rx="70.701" ry="54.233"/>
		
			<ellipse transform="matrix(0.974 -0.2266 0.2266 0.974 -28.9674 66.4962)" style="fill:#92E3A9;stroke:#263238;stroke-miterlimit:10;" cx="275.103" cy="159.399" rx="81.319" ry="42.105"/>
		<path style="fill:#92E3A9;stroke:#263238;stroke-miterlimit:10;" d="M385.195,301.524l-36.067-156.243
			c-4.529-19.465-41.036-27.604-81.54-18.179c-40.504,9.425-69.667,32.845-65.138,52.309c0.179,0.772,0.427,1.519,0.705,2.254
			l47.306,151.21c4.161,17.88,37.694,25.356,74.9,16.699C362.567,340.917,389.355,319.404,385.195,301.524z"/>
		<g>
			<path style="fill:#FFFFFF;stroke:#263238;stroke-miterlimit:10;" d="M216.343,223.819c5.251-10.344,11.297-21.539,18.135-33.141
				c11.927-20.234,27.415-43.552,46.275-66.043c-4.317,0.62-8.715,1.431-13.165,2.467c-4.689,1.091-9.217,2.377-13.568,3.815
				c-13.457,17.723-24.878,35.335-34.187,51.128c-3.797,6.442-7.35,12.745-10.663,18.846L216.343,223.819z"/>
			<path style="fill:#FFFFFF;stroke:#263238;stroke-miterlimit:10;" d="M354.596,168.97l-4.862-21.062
				c-24.286,28.752-47.879,63.201-70.615,103.189c-13.705,24.106-25.056,46.783-33.779,65.409l5.121,16.369
				c0.547,2.348,1.612,4.512,3.113,6.488c9.055-20.316,22.691-48.848,40.324-79.864C314.868,222.615,335.357,192.9,354.596,168.97z"
				/>
			<path style="fill:#FFFFFF;stroke:#263238;stroke-miterlimit:10;" d="M293.274,353.15c11.594-23.76,29.548-57.97,52.239-93.038
				c6.849-10.585,14.4-21.648,22.561-32.753l-5.001-21.664c-10.739,13.922-21.416,29.071-31.974,45.4
				c-24.823,38.39-44.083,75.774-55.733,100.043C280.746,352.351,286.786,353.032,293.274,353.15z"/>
			<path style="fill:#FFFFFF;stroke:#263238;stroke-miterlimit:10;" d="M258.407,232.644
				c16.515-29.794,40.976-67.627,74.269-103.864c-5.264-2.252-11.556-3.858-18.593-4.755
				c-31.41,35.459-54.733,71.801-70.767,100.779c-6.328,11.436-11.839,22.251-16.597,32.181l7.591,24.265
				C240.408,267.37,248.374,250.743,258.407,232.644z"/>
		</g>
		
			<ellipse transform="matrix(0.9684 -0.2495 0.2495 0.9684 -68.2174 89.2892)" style="fill:#92E3A9;stroke:#263238;stroke-miterlimit:10;" cx="318.04" cy="313.688" rx="67.894" ry="34.444"/>
	</g>
	<path style="fill:#263238;stroke:#263238;stroke-miterlimit:10;" d="M446.668,264.379c0,0-36.742,9.603-60.959,12.943
		c-24.217,3.34-48.851-2.088-48.851,3.34c0,5.428,17.954,22.964,52.191,28.392c34.237,5.428,61.794-3.34,65.969-5.01"/>
</g>
</svg>
